<svg id="Capa_1" enable-background="new 0 0 512.208 512.208" height="25" viewBox="0 0 512.208 512.208" width="25" xmlns="http://www.w3.org/2000/svg"><g><path d="m466.104 256.104c0-4.883-.174-9.82-.52-14.754l46.624-39.918-2.277-9.018c-3.12-12.358-7.163-24.574-12.022-36.324-4.866-11.729-10.645-23.225-17.176-34.17l-4.767-7.987-61.095 4.734c-6.515-7.517-13.567-14.581-21.075-21.108l4.743-61.208-7.987-4.766c-10.946-6.533-22.442-12.312-34.185-17.184-11.735-4.853-23.951-8.896-36.308-12.016l-9.018-2.277-39.847 46.54c-9.992-.716-19.866-.724-29.843-.025l-39.919-46.623-9.018 2.277c-12.357 3.121-24.573 7.163-36.324 12.023-11.73 4.867-23.226 10.646-34.169 17.177l-7.987 4.766 4.734 61.095c-7.518 6.515-14.582 13.568-21.108 21.076l-61.208-4.743-4.767 7.987c-6.533 10.947-12.312 22.443-17.183 34.186-4.853 11.735-8.896 23.951-12.016 36.308l-2.277 9.018 46.54 39.847c-.362 5.05-.545 10.101-.545 15.089 0 4.882.174 9.82.52 14.754l-46.624 39.916 2.277 9.018c3.12 12.358 7.163 24.574 12.022 36.324 4.866 11.729 10.645 23.226 17.177 34.169l4.766 7.987 61.095-4.734c6.514 7.517 13.567 14.581 21.075 21.108l-4.743 61.208 7.987 4.766c10.946 6.533 22.442 12.312 34.185 17.184 11.735 4.853 23.951 8.896 36.308 12.016l9.018 2.277 39.847-46.54c9.993.717 19.868.725 29.843.025l39.918 46.624 9.018-2.277c12.358-3.12 24.574-7.163 36.324-12.022 11.729-4.866 23.226-10.645 34.169-17.177l7.987-4.766-4.734-61.095c7.517-6.514 14.581-13.567 21.108-21.075l61.208 4.743 4.766-7.987c6.533-10.946 12.312-22.442 17.184-34.185 4.853-11.735 8.896-23.951 12.016-36.308l2.277-9.018-46.54-39.847c.363-5.05.546-10.1.546-15.09zm12.2 65.495c-2.333 7.917-5.085 15.72-8.214 23.287-3.142 7.574-6.715 15.04-10.664 22.289l-58.049-4.498-4.959 6.164c-8.224 10.222-17.582 19.564-27.814 27.768l-6.185 4.958 4.491 57.969c-7.248 3.948-14.71 7.519-22.274 10.657-7.578 3.134-15.384 5.887-23.301 8.221l-37.854-44.212-7.86.847c-6.502.701-13.069 1.056-19.518 1.056-6.538 0-13.206-.367-19.818-1.091l-7.875-.862-37.802 44.152c-7.917-2.333-15.72-5.085-23.287-8.214-7.574-3.142-15.04-6.715-22.289-10.664l4.498-58.049-6.164-4.959c-10.222-8.224-19.564-17.582-27.768-27.814l-4.958-6.185-57.969 4.491c-3.948-7.248-7.519-14.71-10.657-22.274-3.134-7.578-5.887-15.384-8.221-23.301l44.212-37.854-.847-7.86c-.701-6.502-1.056-13.069-1.056-19.518 0-6.537.367-13.205 1.091-19.818l.862-7.875-44.151-37.8c2.333-7.917 5.085-15.72 8.214-23.287 3.142-7.574 6.715-15.04 10.664-22.29l58.049 4.498 4.958-6.164c8.223-10.221 17.581-19.563 27.814-27.769l6.184-4.958-4.491-57.968c7.247-3.948 14.71-7.519 22.273-10.657 7.578-3.134 15.384-5.887 23.302-8.221l37.853 44.212 7.86-.847c6.502-.701 13.069-1.056 19.518-1.056 6.538 0 13.206.367 19.818 1.091l7.875.862 37.802-44.152c7.917 2.333 15.72 5.085 23.287 8.214 7.574 3.142 15.04 6.715 22.289 10.664l-4.498 58.049 6.164 4.959c10.221 8.224 19.564 17.582 27.768 27.814l4.958 6.184 57.968-4.491c3.948 7.248 7.52 14.711 10.657 22.274 3.134 7.578 5.887 15.384 8.221 23.301l-44.212 37.854.847 7.86c.701 6.502 1.056 13.069 1.056 19.518 0 6.538-.367 13.206-1.091 19.818l-.862 7.875z"/><path d="m256.104 106.104c-82.71 0-150 67.29-150 150s67.29 150 150 150 150-67.29 150-150-67.29-150-150-150zm0 270c-66.168 0-120-53.832-120-120s53.832-120 120-120 120 53.832 120 120-53.832 120-120 120z"/><path d="m256.104 166.104c-49.626 0-90 40.374-90 90s40.374 90 90 90 90-40.374 90-90-40.374-90-90-90zm0 150c-33.084 0-60-26.916-60-60s26.916-60 60-60 60 26.916 60 60-26.916 60-60 60z"/></g></svg>
